<svg width="502" height="788" viewBox="0 0 502 788" fill="none" xmlns="http://www.w3.org/2000/svg">
<path d="M188.111 -0.000372367L199.038 1.10739L210.476 3.78022L218.266 6.95151L222.939 9.06254L231.244 13.2783L236.949 16.9575L251.46 27.9795L256.117 32.6936L260.26 36.3634L266.473 42.1283L267.501 44.2172L268.543 44.2235L275.27 51.0329L279.921 56.7884L284.057 61.4994L289.222 68.2993L294.391 74.5785L300.07 82.4228L304.197 88.6958L308.327 94.448L314.518 103.857L318.639 111.172L322.251 116.4L325.34 122.146L329.464 128.94L334.614 138.343L338.22 144.612L341.309 150.358L343.363 155.057L347.998 163.415L352.624 173.336L355.709 179.602L362.903 195.266L364.957 199.964L367.522 206.227L371.116 214.58L375.227 223.456L377.272 229.716L379.329 233.894L382.396 243.284L383.945 245.376L387.002 256.328L389.58 260.509L393.145 273.547L394.177 275.116L396.263 274.608L401.495 270.474L406.202 266.858L410.386 263.76L429.205 251.379L434.951 248.29L435.999 247.255L440.694 245.721L444.875 243.144L448.522 242.645L451.662 240.061L461.049 237.515L463.144 235.445L478.268 231.372L484.005 229.845L488.69 229.873L493.363 231.984L497.503 236.175L500.081 240.355L501.1 244.006L500.532 251.812L496.319 259.597L492.094 269.463L483.085 295.441L479.342 311.558L477.212 319.355L474.514 334.958L472.902 343.279L472.879 346.923L471.273 354.203L470.692 364.092L469.064 375.015L468.486 384.384L466.887 390.622L467.401 391.666L467.356 398.955L466.198 418.212L465.576 434.869L466.084 436.955L465.56 437.472L465.538 441.117L466.57 442.685L465.519 444.24L465.5 447.364L466.532 448.933L465.478 451.009L465.462 453.612L466.491 455.701L465.427 459.339L466.459 460.907L465.386 466.107L466.932 468.72L466.393 471.84L465.351 471.834L467.399 477.574L466.339 480.691L467.358 484.342L468.393 485.389L467.313 491.631L468.863 493.723L468.323 496.843L467.799 497.361L467.783 499.964L469.329 502.577L469.31 505.7L468.269 505.694L469.285 509.865L470.307 512.996L469.26 514.031L469.241 517.154L470.781 520.808L469.708 526.008L470.743 527.056L471.244 530.183L470.187 532.78L471.724 536.954L470.657 541.113L472.708 546.332L471.648 549.449L472.152 552.056L472.67 552.579L472.648 556.224L472.118 557.783L473.137 561.433L472.591 565.595L473.096 568.202L472.553 571.843L473.054 574.97L471.928 589.02L470.296 600.465L468.687 608.265L465.5 618.659L461.792 629.049L453.897 643.059L450.224 647.722L444.453 654.976L443.411 654.97L444.421 660.182L453.577 695.642L454.075 699.29L453.539 701.89L455.072 706.585L455.05 710.23L454.52 711.788L455.536 715.96L452.327 729.998L446.009 741.414L441.806 747.636L440.765 747.63L440.759 748.671L435.003 753.322L429.775 756.934L425.594 759.512L419.854 761.56L405.775 765.119L396.388 767.665L376.052 772.748L370.836 774.278L347.369 780.383L342.674 781.917L329.119 784.958L326.509 785.983L319.211 787.501L316.09 786.961L315.046 787.476L311.405 786.933L306.722 786.384L297.884 784.247L286.468 777.93L280.766 773.73L274.56 766.924L271.462 762.74L269.922 759.086L267.858 755.95L265.817 749.169L264.265 747.597L258.156 724.652L253.578 706.922L253.07 704.836L248.388 704.287L244.235 702.179L239.559 700.588L225.032 692.17L217.781 685.878L212.086 680.637L207.943 676.967L202.257 670.164L199.159 665.98L195.026 660.748L187.289 648.726L184.714 644.025L180.594 636.71L178.022 631.488L175.968 626.79L173.908 623.133L171.86 617.393L169.796 614.257L168.257 610.603L166.196 606.946L164.66 602.771L163.107 601.2L161.577 595.984L158.999 591.803L157.98 588.152L155.917 585.016L154.386 579.8L152.834 578.229L150.783 573.01L149.755 570.921L148.716 570.394L146.675 563.613L146.681 562.572L145.123 562.042L143.593 556.826L141.008 553.686L139.475 548.991L137.411 545.854L133.811 538.543L128.656 530.182L127.63 527.572L125.052 523.391L123.51 520.258L116.805 509.804L112.684 502.49L108.554 496.738L104.43 489.944L101.855 485.243L97.2106 478.446L92.0455 471.646L87.9152 465.894L84.82 461.189L81.204 456.481L76.5564 450.205L71.9055 444.45L66.734 438.691L63.1212 433.463L57.9498 427.704L54.3307 423.517L45.5338 414.612L41.9147 410.425L36.7368 405.708L35.1813 404.657L35.1876 403.616L33.6289 403.085L31.0447 399.946L24.3082 394.698L19.1272 390.502L13.943 386.825L11.3525 384.727L6.16523 381.572L3.0636 377.908L0.492108 372.686L-2.38459e-05 367.997L1.60304 361.239L4.23153 357.089L8.93622 353.994L22.4948 350.432L27.1868 349.419L28.2313 348.905L31.3551 348.924L33.9551 349.46L36.0439 348.432L40.2153 347.416L42.8216 346.911L46.4597 347.974L51.1581 345.92L53.2374 346.454L56.8819 346.476L59.4914 345.45L63.1294 346.514L64.6945 346.003L71.4627 346.044L87.0753 347.18L95.3991 348.272L109.444 350.44L109.466 346.796L106.415 334.802L105.907 332.716L106.964 330.12L103.907 319.167L103.922 316.564L104.459 313.964L101.903 306.139L102.459 300.415L99.903 292.59L100.458 286.866L98.9251 282.171L99.4774 276.968L97.9408 272.793L98.4994 266.549L96.9629 262.374L98.0295 258.215L95.9755 253.517L97.0357 250.4L96.5341 247.273L95.5023 245.704L96.0356 243.625L96.5752 240.504L95.0324 237.371L96.0895 234.774L96.1053 232.171L95.0704 231.124L95.0925 227.479L95.629 224.879L94.5972 223.311L95.1337 220.711L95.667 218.632L94.1209 216.019L95.1939 210.819L94.1621 209.251L94.7144 204.048L94.2128 200.921L94.7524 197.8L93.727 195.19L94.7809 193.114L94.2761 190.508L93.765 188.943L94.3109 184.781L94.8632 179.578L94.3584 176.971L94.9424 166.562L95.482 163.441L94.9804 160.314L95.5548 151.467L96.6214 147.308L96.6531 142.102L97.764 130.654L99.3924 119.73L101.008 110.889L101.557 106.207L105.3 90.0893L107.966 79.6925L113.798 62.5464L117.493 54.2385L121.715 44.8924L126.975 36.0734L131.696 30.3749L134.848 25.7082L141.137 18.978L146.892 14.3272L149.508 12.2605L154.213 9.16517L157.346 7.62228L163.609 5.05712L169.866 3.53322L171.955 2.50462L177.165 2.01566L179.777 0.469594L184.984 0.50126L187.063 1.03456L188.111 -0.000372367ZM209.737 39.7007L210.762 42.3102L215.41 48.5862L220.565 56.948L223.658 62.1733L227.261 68.9637L228.81 71.0557L230.867 75.2335L232.928 78.8906L235.534 78.3858L249.613 74.8268L251.185 73.2744L246.007 68.5571L242.388 64.3699L238.765 60.7033L234.622 57.0335L227.889 51.2654L221.667 47.0623L218.559 44.4402L211.816 40.234L209.737 39.7007ZM154.982 53.9459L151.302 59.6506L148.668 64.8411L146.553 70.0348L143.912 76.2665L139.141 90.2951L137.005 99.1332L135.947 101.73L135.935 103.813L140.624 103.32L152.617 100.269L154.189 98.717L154.233 91.4282L153.725 89.3425L154.252 88.3044L154.271 85.1806L153.766 82.5743L154.306 79.4537L153.804 76.3267L154.344 73.2061L155.502 53.949L154.982 53.9459ZM187.188 66.1167L186.664 66.6342L186.093 74.9611L186.042 83.2912L185.474 91.0976L191.207 90.0911L201.115 87.5481L200.607 85.4624L196.48 79.1895L194.423 75.0118L191.328 70.3071L188.75 66.1262L187.188 66.1167ZM271.836 102.036L248.89 108.144L248.36 109.703L250.401 116.484L252.468 119.1L254.512 125.36L256.576 128.496L258.617 135.277L260.684 137.893L262.211 143.629L264.278 146.245L265.814 150.42L269.462 149.921L298.665 142.289L299.192 141.251L296.611 137.591L294.039 132.369L290.426 127.14L287.849 122.959L286.306 119.826L283.204 116.163L275.985 104.664L273.918 102.049L271.836 102.036ZM215.516 116.792L194.135 122.389L186.833 124.428L186.306 125.466L188.354 131.205L187.802 136.408L189.335 141.104L188.799 143.704L188.269 145.262L190.316 151.002L190.297 154.126L189.761 156.726L191.3 160.38L190.745 166.103L191.764 169.754L195.412 169.256L226.7 161.116L233.481 159.074L234.018 156.474L232.475 153.341L230.925 151.249L229.398 145.512L227.332 142.897L224.776 135.071L223.224 133.5L220.668 125.675L219.116 124.103L217.077 116.802L215.516 116.792ZM153.459 133.076L129.993 139.181L128.885 150.108L128.313 158.435L127.247 162.593L128.269 165.723L127.736 167.803L127.158 177.171L127.098 187.063L133.355 185.539L150.565 180.958L159.952 178.412L160.479 177.374L159.466 172.682L159.993 171.644L159.501 166.955L158.986 165.91L159.005 162.786L159.545 159.666L157.497 153.926L158.053 148.202L157.024 146.114L157.05 141.948L157.583 139.869L156.554 137.78L156.059 133.612L153.459 133.076ZM313.586 171.536L288.554 178.153L278.646 180.696L279.145 184.343L282.205 194.775L284.272 197.391L287.834 210.949L289.904 213.044L292.961 223.997L301.304 221.965L330.507 214.333L335.202 212.799L334.177 210.19L332.624 208.618L331.094 203.403L329.542 201.831L328.014 196.095L325.948 193.479L323.383 187.216L321.833 185.124L320.3 180.428L318.741 179.898L316.709 171.555L313.586 171.536ZM245.793 189.347L204.596 200.03L195.73 202.579L196.742 207.271L199.292 216.138L198.225 220.297L199.762 224.471L201.286 230.728L201.784 234.376L201.244 237.496L203.286 244.277L203.791 246.884L207.959 246.388L250.72 235.194L260.108 232.648L261.679 231.096L259.634 224.835L258.615 221.185L257.063 219.613L253.491 207.616L252.986 205.01L251.434 203.439L249.393 196.658L247.355 189.356L245.793 189.347ZM163.4 210.713L148.276 214.786L126.895 220.383L126.368 221.422L128.41 228.202L127.343 232.361L128.886 235.494L128.331 241.218L129.359 243.307L128.804 249.031L130.337 253.726L129.28 256.323L129.788 258.409L130.302 259.453L130.28 263.097L129.741 266.218L133.909 265.723L168.848 256.564L172.499 255.544L172.004 251.376L169.959 245.116L171.022 241.478L167.454 228.961L168.006 223.757L164.955 211.764L164.441 210.719L163.4 210.713ZM345.948 243.583L308.403 253.247L304.228 254.784L305.241 259.476L309.822 276.685L312.403 280.345L316.981 298.075L317.496 299.12L321.664 298.624L360.254 288.446L363.905 287.427L364.432 286.389L362.889 283.256L361.336 281.684L358.285 269.691L356.219 267.075L352.653 254.037L350.072 250.377L348.552 243.599L345.948 243.583ZM271.898 262.917L234.873 272.585L212.972 278.179L209.318 279.718L213.388 295.363L214.401 300.055L213.877 300.572L214.369 305.261L219.458 324.556L221.017 325.086L239.792 319.994L278.902 309.819L285.683 307.777L285.188 303.609L280.099 284.314L278.029 282.219L273.959 266.575L272.94 262.924L271.898 262.917ZM454.574 274.962L446.739 279.08L438.901 283.718L428.968 290.426L424.784 293.524L419.028 298.175L412.222 304.382L409.606 306.448L405.936 310.591L398.6 318.357L394.93 322.499L392.829 325.611L390.207 328.718L386.534 333.382L383.381 338.049L378.124 346.347L376.029 348.417L372.334 356.725L364.966 369.696L359.154 383.719L354.401 394.623L347.503 415.928L344.843 425.284L341.11 439.839L336.285 462.719L334.657 473.642L334.631 477.807L333.028 484.566L332.451 493.934L331.356 502.779L330.242 514.747L330.743 517.874L329.588 536.61L330.086 540.258L329.55 542.858L330.048 546.505L329.515 548.585L329.493 552.229L327.903 556.905L324.23 561.569L321.093 563.632L314.836 565.156L311.192 565.134L305.477 563.017L301.334 559.347L297.725 553.598L295.668 549.42L291.544 542.627L286.388 534.265L282.779 528.516L280.204 523.814L276.077 517.541L272.464 512.313L268.848 507.605L258.004 492.961L253.353 487.205L250.254 483.021L245.6 477.787L240.949 472.031L232.673 463.13L230.083 461.031L226.464 456.844L221.81 451.609L216.114 446.368L211.971 442.698L209.384 440.079L203.689 434.838L196.952 429.591L191.771 425.394L186.587 421.718L181.924 418.045L168.955 410.156L164.289 407.004L160.663 403.858L155.984 402.788L150.796 399.633L143.53 395.944L138.336 393.83L132.104 391.189L118.596 386.421L112.879 384.824L101.441 382.151L94.6822 380.548L90.5171 380.523L84.7965 379.447L68.1394 378.825L66.0569 378.812L56.6855 378.755L57.1935 380.841L62.3745 385.037L72.2063 394.99L75.8317 398.136L80.4826 403.891L84.0985 408.599L90.3018 415.926L95.9907 422.208L99.6098 426.395L105.807 434.763L108.908 438.427L113.039 444.179L116.651 449.408L123.363 458.82L135.226 477.115L140.899 486.001L144.506 492.271L149.147 499.588L152.754 505.858L157.906 514.74L160.998 519.965L164.084 526.232L166.138 530.93L168.716 535.111L171.802 541.378L175.399 549.209L176.938 552.863L181.053 561.219L183.618 567.482L186.192 572.184L187.732 575.838L193.39 587.326L194.926 591.501L200.072 601.425L202.123 606.644L206.237 614.999L212.933 627.015L216.022 632.761L222.212 642.17L227.374 649.491L233.581 656.297L238.759 661.014L244.46 665.214L255.356 671.528L269.905 676.302L278.229 677.394L288.117 677.975L289.676 678.505L291.765 677.477L297.489 678.032L299.578 677.004L305.301 677.559L309.997 676.026L313.12 676.045L315.72 676.581L317.809 675.553L324.066 674.029L331.368 671.99L334.492 672.009L337.092 672.546L341.787 671.013L355.345 667.45L355.879 665.371L361.091 664.361L373.605 661.314L376.745 658.729L382.482 657.202L385.621 654.618L390.313 653.605L393.973 651.024L398.151 648.967L410.697 640.713L415.926 637.1L421.167 631.405L425.363 626.224L431.677 615.329L434.849 607.538L437.509 598.183L438.585 592.462L439.734 574.767L440.28 570.605L439.781 566.958L440.318 564.358L439.289 562.269L440.356 558.11L439.327 556.021L439.864 553.421L440.394 551.862L438.854 548.209L439.406 543.005L437.876 537.79L438.933 535.193L438.429 532.586L437.397 531.018L438.47 525.818L436.93 522.164L437.489 515.92L436.457 514.352L437.015 508.107L435.984 506.539L436.545 499.774L435.003 496.641L435.018 494.037L435.542 493.52L435.561 490.396L434.529 488.828L435.088 482.584L433.548 478.93L434.621 473.73L433.586 472.682L433.088 469.034L433.612 468.517L433.631 465.393L432.608 462.263L433.65 462.269L433.669 459.146L432.643 456.536L433.192 451.854L432.167 449.244L433.221 447.168L432.719 444.041L432.208 442.476L433.259 440.92L432.757 437.793L432.246 436.228L432.789 432.587L433.344 426.863L432.836 424.778L433.42 414.368L433.963 410.727L433.458 408.121L434.591 393.029L435.747 374.292L436.823 368.572L436.845 364.927L437.378 362.848L436.87 360.762L437.934 357.124L437.962 352.438L439.565 345.68L440.657 337.356L446.019 311.876L446.041 308.232L448.711 297.315L454.028 279.124L455.082 277.048L454.574 274.962ZM175.947 287.846L148.83 294.97L135.792 298.535L134.227 299.046L134.728 302.173L135.754 304.783L135.728 308.948L135.198 310.507L136.732 315.202L138.767 323.024L138.214 328.227L139.745 333.443L141.278 338.138L140.716 344.903L144.881 344.928L167.827 338.82L187.122 333.731L188.167 333.217L187.157 328.004L183.592 314.966L184.144 309.763L180.071 294.639L178.55 287.862L175.947 287.846ZM352.238 322.24L330.337 327.834L327.207 328.856L327.705 332.504L333.296 354.926L334.322 357.535L335.887 357.024L338.531 350.272L346.423 336.783L353.788 324.332L354.321 322.252L352.238 322.24ZM293.833 337.504L244.814 350.222L227.605 354.803L226.033 356.356L230.107 371.479L234.177 387.124L235.202 389.733L234.669 391.813L234.139 393.371L238.212 408.495L241.86 407.996L256.983 403.923L301.83 392.221L309.653 390.186L310.703 388.63L307.141 375.072L304.56 371.412L299.982 353.682L295.915 337.517L293.833 337.504ZM192.665 363.963L175.456 368.544L167.113 370.576L169.701 373.195L175.409 376.353L184.748 381.617L196.679 388.978L200.821 392.648L202.386 392.137L197.297 372.842L195.265 364.499L192.665 363.963ZM310.494 422.992L295.371 427.065L258.346 436.733L254.174 437.748L255.203 439.837L259.343 444.028L262.962 448.215L267.616 453.45L271.235 457.637L275.889 462.872L281.568 470.716L283.635 473.332L286.733 477.516L294.994 489.021L298.095 492.684L299.657 492.694L300.724 488.535L301.828 478.129L304.012 461.481L304.561 456.798L310.456 429.24L311.536 422.999L310.494 422.992ZM413.599 677.176L406.285 681.297L401.583 683.872L396.888 685.405L394.272 687.472L385.93 689.504L383.834 691.574L360.889 697.682L357.238 698.701L354.619 701.288L351.492 701.79L350.457 700.742L347.33 701.244L323.864 707.349L321.781 707.336L319.181 706.8L310.835 709.352L307.197 708.289L301.978 710.34L297.299 709.27L294.689 710.296L293.13 709.765L289.486 709.743L288.962 710.261L289.454 714.95L295.556 738.937L299.163 745.206L301.75 747.825L305.896 750.974L312.125 754.136L317.328 754.689L320.455 754.187L320.972 754.711L325.14 754.215L363.731 744.037L406.492 732.843L410.152 730.262L413.806 728.722L417.476 724.579L421.685 717.316L422.241 711.592L422.793 706.389L419.736 695.437L415.672 678.751L414.64 677.183L413.599 677.176Z" fill="#FEC526"/>
<path d="M175.947 287.846L148.83 294.97L135.792 298.535L134.227 299.046L134.728 302.173L135.754 304.783L135.728 308.948L135.198 310.507L136.732 315.202L138.767 323.024L138.214 328.227L139.745 333.443L141.278 338.138L140.716 344.903L144.881 344.928L167.827 338.82L187.122 333.731L188.167 333.217L187.157 328.004L183.592 314.966L184.144 309.763L180.071 294.639L178.55 287.862L175.947 287.846Z" fill="#FEC526"/>
<path d="M192.665 363.963L175.456 368.544L167.113 370.576L169.701 373.195L175.409 376.353L184.748 381.617L196.679 388.978L200.821 392.648L202.386 392.137L197.297 372.842L195.265 364.499L192.665 363.963Z" fill="#FEC526"/>
<path d="M293.833 337.504L244.814 350.222L227.605 354.803L226.033 356.356L230.107 371.479L234.177 387.124L235.202 389.733L234.669 391.813L234.139 393.371L238.212 408.495L241.86 407.996L256.983 403.923L301.83 392.221L309.653 390.186L310.703 388.63L307.141 375.072L304.56 371.412L299.982 353.682L295.915 337.517L293.833 337.504Z" fill="#FEC526"/>
<path d="M310.494 422.992L295.371 427.065L258.346 436.733L254.174 437.748L255.203 439.837L259.343 444.028L262.962 448.215L267.616 453.45L271.235 457.637L275.889 462.872L281.568 470.716L283.635 473.332L286.733 477.516L294.994 489.021L298.095 492.684L299.657 492.694L300.724 488.535L301.828 478.129L304.012 461.481L304.561 456.798L310.456 429.24L311.536 422.999L310.494 422.992Z" fill="#FEC526"/>
<path d="M352.238 322.24L330.337 327.834L327.207 328.856L327.705 332.504L333.296 354.926L334.322 357.535L335.887 357.024L338.531 350.272L346.423 336.783L353.788 324.332L354.321 322.252L352.238 322.24Z" fill="#FEC526"/>
<path d="M345.948 243.583L308.403 253.247L304.228 254.784L305.241 259.476L309.822 276.685L312.403 280.345L316.981 298.075L317.496 299.12L321.664 298.624L360.254 288.446L363.905 287.427L364.432 286.389L362.889 283.256L361.336 281.684L358.285 269.691L356.219 267.075L352.653 254.037L350.072 250.377L348.552 243.599L345.948 243.583Z" fill="#FEC526"/>
<path d="M271.898 262.917L234.873 272.585L212.972 278.179L209.318 279.718L213.388 295.363L214.401 300.055L213.877 300.572L214.369 305.261L219.458 324.556L221.017 325.086L239.792 319.994L278.902 309.819L285.683 307.777L285.188 303.609L280.099 284.314L278.029 282.219L273.959 266.575L272.94 262.924L271.898 262.917Z" fill="#FEC526"/>
<path d="M245.793 189.347L204.596 200.03L195.73 202.579L196.742 207.271L199.292 216.138L198.225 220.297L199.762 224.471L201.286 230.728L201.784 234.376L201.244 237.496L203.286 244.277L203.791 246.884L207.959 246.388L250.72 235.194L260.108 232.648L261.679 231.096L259.634 224.835L258.615 221.185L257.063 219.613L253.491 207.616L252.986 205.01L251.434 203.439L249.393 196.658L247.355 189.356L245.793 189.347Z" fill="#FEC526"/>
<path d="M163.4 210.713L148.276 214.786L126.895 220.383L126.368 221.422L128.41 228.202L127.343 232.361L128.886 235.494L128.331 241.218L129.359 243.307L128.804 249.031L130.337 253.726L129.28 256.323L129.788 258.409L130.302 259.453L130.28 263.097L129.741 266.218L133.909 265.723L168.848 256.564L172.499 255.544L172.004 251.376L169.959 245.116L171.022 241.478L167.454 228.961L168.006 223.757L164.955 211.764L164.441 210.719L163.4 210.713Z" fill="#FEC526"/>
<path d="M154.982 53.9459L151.302 59.6506L148.668 64.8411L146.553 70.0348L143.912 76.2665L139.141 90.2951L137.005 99.1332L135.947 101.73L135.935 103.813L140.624 103.32L152.617 100.269L154.189 98.717L154.233 91.4282L153.725 89.3425L154.252 88.3044L154.271 85.1806L153.766 82.5743L154.306 79.4537L153.804 76.3267L154.344 73.2061L155.502 53.949L154.982 53.9459Z" fill="#FEC526"/>
<path d="M153.459 133.076L129.993 139.181L128.885 150.108L128.313 158.435L127.247 162.593L128.269 165.723L127.736 167.803L127.158 177.171L127.098 187.063L133.355 185.539L150.565 180.958L159.952 178.412L160.479 177.374L159.466 172.682L159.993 171.644L159.501 166.955L158.986 165.91L159.005 162.786L159.545 159.666L157.497 153.926L158.053 148.202L157.024 146.114L157.05 141.948L157.583 139.869L156.554 137.78L156.059 133.612L153.459 133.076Z" fill="#FEC526"/>
<path d="M215.516 116.792L194.135 122.389L186.833 124.428L186.306 125.466L188.354 131.205L187.802 136.408L189.335 141.104L188.799 143.704L188.269 145.262L190.316 151.002L190.297 154.126L189.761 156.726L191.3 160.38L190.745 166.103L191.764 169.754L195.412 169.256L226.7 161.116L233.481 159.074L234.018 156.474L232.475 153.341L230.925 151.249L229.398 145.512L227.332 142.897L224.776 135.071L223.224 133.5L220.668 125.675L219.116 124.103L217.077 116.802L215.516 116.792Z" fill="#FEC526"/>
<path d="M271.836 102.036L248.89 108.144L248.36 109.703L250.401 116.484L252.468 119.1L254.512 125.36L256.576 128.496L258.617 135.277L260.684 137.893L262.211 143.629L264.278 146.245L265.814 150.42L269.462 149.921L298.665 142.289L299.192 141.251L296.611 137.591L294.039 132.369L290.426 127.14L287.849 122.959L286.306 119.826L283.204 116.163L275.985 104.664L273.918 102.049L271.836 102.036Z" fill="#FEC526"/>
<path d="M313.586 171.536L288.554 178.153L278.646 180.696L279.145 184.343L282.205 194.775L284.272 197.391L287.834 210.949L289.904 213.044L292.961 223.997L301.304 221.965L330.507 214.333L335.202 212.799L334.177 210.19L332.624 208.618L331.094 203.403L329.542 201.831L328.014 196.095L325.948 193.479L323.383 187.216L321.833 185.124L320.3 180.428L318.741 179.898L316.709 171.555L313.586 171.536Z" fill="#FEC526"/>
<path d="M187.188 66.1167L186.664 66.6342L186.093 74.9611L186.042 83.2912L185.474 91.0976L191.207 90.0911L201.115 87.5481L200.607 85.4624L196.48 79.1895L194.423 75.0118L191.328 70.3071L188.75 66.1262L187.188 66.1167Z" fill="#FEC526"/>
<path d="M209.737 39.7007L210.762 42.3102L215.41 48.5862L220.565 56.948L223.658 62.1733L227.261 68.9637L228.81 71.0557L230.867 75.2335L232.928 78.8906L235.534 78.3858L249.613 74.8268L251.185 73.2744L246.007 68.5571L242.388 64.3699L238.765 60.7033L234.622 57.0335L227.889 51.2654L221.667 47.0623L218.559 44.4402L211.816 40.234L209.737 39.7007Z" fill="#FEC526"/>
<path d="M454.574 274.962L446.739 279.08L438.901 283.718L428.968 290.426L424.784 293.524L419.028 298.175L412.222 304.382L409.606 306.448L405.936 310.591L398.6 318.357L394.93 322.499L392.829 325.611L390.207 328.718L386.534 333.382L383.381 338.049L378.124 346.347L376.029 348.417L372.334 356.725L364.966 369.696L359.154 383.719L354.401 394.623L347.503 415.928L344.843 425.284L341.11 439.839L336.285 462.719L334.657 473.642L334.631 477.807L333.028 484.566L332.451 493.934L331.356 502.779L330.242 514.747L330.743 517.874L329.588 536.61L330.086 540.258L329.55 542.858L330.048 546.505L329.515 548.585L329.493 552.229L327.903 556.905L324.23 561.569L321.093 563.632L314.836 565.156L311.192 565.134L305.477 563.017L301.334 559.347L297.725 553.598L295.668 549.42L291.544 542.627L286.388 534.265L282.779 528.516L280.204 523.814L276.077 517.541L272.464 512.313L268.848 507.605L258.004 492.961L253.353 487.205L250.254 483.021L245.6 477.787L240.949 472.031L232.673 463.13L230.083 461.031L226.464 456.844L221.81 451.609L216.114 446.368L211.971 442.698L209.384 440.079L203.689 434.838L196.952 429.591L191.771 425.394L186.587 421.718L181.924 418.045L168.955 410.156L164.289 407.004L160.663 403.858L155.984 402.788L150.796 399.633L143.53 395.944L138.336 393.83L132.104 391.189L118.596 386.421L112.879 384.824L101.441 382.151L94.6822 380.548L90.5171 380.523L84.7965 379.447L68.1394 378.825L66.0569 378.812L56.6855 378.755L57.1935 380.841L62.3745 385.037L72.2063 394.99L75.8317 398.136L80.4826 403.891L84.0985 408.599L90.3018 415.926L95.9907 422.208L99.6098 426.395L105.807 434.763L108.908 438.427L113.039 444.179L116.651 449.408L123.363 458.82L135.226 477.115L140.899 486.001L144.506 492.271L149.147 499.588L152.754 505.858L157.906 514.74L160.998 519.965L164.084 526.232L166.138 530.93L168.716 535.111L171.802 541.378L175.399 549.209L176.938 552.863L181.053 561.219L183.618 567.482L186.192 572.184L187.732 575.838L193.39 587.326L194.926 591.501L200.072 601.425L202.123 606.644L206.237 614.999L212.933 627.015L216.022 632.761L222.212 642.17L227.374 649.491L233.581 656.297L238.759 661.014L244.46 665.214L255.356 671.528L269.905 676.302L278.229 677.394L288.117 677.975L289.676 678.505L291.765 677.477L297.489 678.032L299.578 677.004L305.301 677.559L309.997 676.026L313.12 676.045L315.72 676.581L317.809 675.553L324.066 674.029L331.368 671.99L334.492 672.009L337.092 672.546L341.787 671.013L355.345 667.45L355.879 665.371L361.091 664.361L373.605 661.314L376.745 658.729L382.482 657.202L385.621 654.618L390.313 653.605L393.973 651.024L398.151 648.967L410.697 640.713L415.926 637.1L421.167 631.405L425.363 626.224L431.677 615.329L434.849 607.538L437.509 598.183L438.585 592.462L439.734 574.767L440.28 570.605L439.781 566.958L440.318 564.358L439.289 562.269L440.356 558.11L439.327 556.021L439.864 553.421L440.394 551.862L438.854 548.209L439.406 543.005L437.876 537.79L438.933 535.193L438.429 532.586L437.397 531.018L438.47 525.818L436.93 522.164L437.489 515.92L436.457 514.352L437.015 508.107L435.984 506.539L436.545 499.774L435.003 496.641L435.018 494.037L435.542 493.52L435.561 490.396L434.529 488.828L435.088 482.584L433.548 478.93L434.621 473.73L433.586 472.682L433.088 469.034L433.612 468.517L433.631 465.393L432.608 462.263L433.65 462.269L433.669 459.146L432.643 456.536L433.192 451.854L432.167 449.244L433.221 447.168L432.719 444.041L432.208 442.476L433.259 440.92L432.757 437.793L432.246 436.228L432.789 432.587L433.344 426.863L432.836 424.778L433.42 414.368L433.963 410.727L433.458 408.121L434.591 393.029L435.747 374.292L436.823 368.572L436.845 364.927L437.378 362.848L436.87 360.762L437.934 357.124L437.962 352.438L439.565 345.68L440.657 337.356L446.019 311.876L446.041 308.232L448.711 297.315L454.028 279.124L455.082 277.048L454.574 274.962Z" fill="white"/>
<path d="M413.599 677.176L406.285 681.297L401.583 683.872L396.888 685.405L394.272 687.472L385.93 689.504L383.834 691.574L360.889 697.682L357.238 698.701L354.619 701.288L351.492 701.79L350.457 700.742L347.33 701.244L323.864 707.349L321.781 707.336L319.181 706.8L310.835 709.352L307.197 708.289L301.978 710.34L297.299 709.27L294.689 710.296L293.13 709.765L289.486 709.743L288.962 710.261L289.454 714.95L295.556 738.937L299.163 745.206L301.75 747.825L305.896 750.974L312.125 754.136L317.328 754.689L320.455 754.187L320.972 754.711L325.14 754.215L363.731 744.037L406.492 732.843L410.152 730.262L413.806 728.722L417.476 724.579L421.685 717.316L422.241 711.592L422.793 706.389L419.736 695.437L415.672 678.751L414.64 677.183L413.599 677.176Z" fill="white"/>
</svg>
