<svg width="248" height="256" viewBox="0 0 248 256" fill="none" xmlns="http://www.w3.org/2000/svg">
<path d="M229.116 47.8673C242.825 46.0735 252.642 60.7683 245.727 72.7338L215.575 124.913C212.83 129.664 212.599 135.461 214.959 140.416L240.878 194.819C246.821 207.294 235.87 221.165 222.346 218.291L163.37 205.758C158 204.616 152.412 206.189 148.426 209.963L104.661 251.408C94.6244 260.912 78.0396 254.79 76.5957 241.048L70.2991 181.123C69.7257 175.667 66.5021 170.841 61.6788 168.22L8.71179 139.431C-3.43442 132.829 -2.73309 115.175 9.89857 109.556L64.9825 85.0535C69.9986 82.8223 73.5948 78.2674 74.5992 72.8731L85.6294 13.6356C88.1588 0.0514577 105.177 -4.73751 114.428 5.53165L154.768 50.3133C158.442 54.3912 163.888 56.4016 169.332 55.6893L229.116 47.8673Z" fill="black"/>
</svg>
