<svg width="289" height="297" viewBox="0 0 289 297" fill="none" xmlns="http://www.w3.org/2000/svg">
<path d="M95.7993 31.8209C99.8474 10.0826 127.067 2.43568 141.858 18.8551L182.199 63.6364C183.669 65.2688 185.851 66.0752 188.035 65.7897L247.819 57.9684C269.733 55.1012 285.455 78.5982 274.386 97.7535L244.234 149.932C243.136 151.832 243.044 154.15 243.988 156.13L269.906 210.534C279.421 230.506 261.884 252.682 240.268 248.089L181.292 235.555C179.139 235.098 176.898 235.729 175.302 237.24L131.537 278.685C115.491 293.879 88.9621 284.103 86.6509 262.11L80.354 202.184C80.1247 200.004 78.8362 198.072 76.9038 197.022L23.937 168.233C4.50542 157.672 5.62916 129.423 25.8345 120.435L80.9185 95.9332C82.9287 95.0391 84.3675 93.2151 84.769 91.0592L95.7993 31.8209Z" fill="white" stroke="black" stroke-width="20"/>
</svg>
