<?xml version="1.0" encoding="UTF-8" standalone="no"?>
<!DOCTYPE svg PUBLIC "-//W3C//DTD SVG 1.1//EN" "http://www.w3.org/Graphics/SVG/1.1/DTD/svg11.dtd">
<svg width="100%" height="100%" viewBox="0 0 556 102" version="1.1" xmlns="http://www.w3.org/2000/svg" xmlns:xlink="http://www.w3.org/1999/xlink" xml:space="preserve" xmlns:serif="http://www.serif.com/" style="fill-rule:evenodd;clip-rule:evenodd;stroke-linejoin:round;stroke-miterlimit:2;">
    <g>
        <path d="M144.9,16C137.3,16 129.6,20 129.6,28.4C129.6,36.8 138.9,40 147.3,41.7C162,45.4 183.4,49.6 183.4,68.9C183.4,88.2 162.8,101.1 142.1,101.1C121.4,101.1 104.7,92.5 105.4,68.2L126.2,68.2C125.4,78.9 131.5,86.1 142.2,86.1C152.9,86.1 161.5,83.6 161.5,73.4C161.5,63.2 147.7,61.3 139.4,59.2C125.9,55.9 107.7,49.8 107.7,32.8C107.7,15.8 127.9,1 147.7,1C167.5,1 180.8,11.2 180.8,30.5L160.8,30.5C160,20.8 154.8,16 144.9,16Z" style="fill-rule:nonzero;"/>
        <path d="M228.8,101.1C207.1,101.1 194.1,86.7 194.1,65.7C194.1,44.7 207.1,30.3 228.8,30.3C250.5,30.3 263.5,44.7 263.5,65.7C263.5,86.7 250.5,101.1 228.8,101.1ZM228.8,87.7C240.9,87.7 242.9,76.3 242.9,65.6C242.9,54.9 240.9,43.6 228.8,43.6C216.7,43.6 214.7,55 214.7,65.6C214.7,76.2 216.7,87.7 228.8,87.7Z" style="fill-rule:nonzero;"/>
        <path d="M294.6,32.2L306.7,32.2L306.7,45.6L294.6,45.6L294.6,99.2L274.7,99.2L274.7,45.6L264.7,45.6L264.7,32.2L274.7,32.2C274.2,13.3 275.9,1 297.5,1C319.1,1 304.8,1.4 308.4,1.9L308.4,14.3C294.3,12.7 294.1,19.1 294.6,32.2Z" style="fill-rule:nonzero;"/>
        <path d="M325.1,19L345,11.8L345,32.2L360,32.2L360,45.6L345,45.6L345,76.6C345,85.4 346.3,87.8 353.2,87.8C360.1,87.8 357.4,87.5 359.6,87.4L359.6,99.1C357.4,100.2 346.7,101.1 344,101.1C328.5,101.1 325.2,93 325.2,78.4L325.2,45.5L311.8,45.5L311.8,32.1L325.2,32.1L325.2,18.9L325.1,19Z" style="fill-rule:nonzero;"/>
        <path d="M379.4,19L399.3,11.8L399.3,32.2L414.3,32.2L414.3,45.6L399.3,45.6L399.3,76.6C399.3,85.4 400.6,87.8 407.5,87.8C414.4,87.8 411.7,87.5 413.9,87.4L413.9,99.1C411.6,100.2 401,101.1 398.2,101.1C382.7,101.1 379.4,93 379.4,78.4L379.4,45.5L366,45.5L366,32.1L379.4,32.1L379.4,18.9L379.4,19Z" style="fill-rule:nonzero;"/>
        <path d="M438.7,71C438.7,79.6 439.9,87.7 450.2,87.7C460.5,87.7 460.6,85.2 462.5,79.1L480.4,79.1C478.7,95.6 465.8,101.1 450.2,101.1C427.3,101.1 418.1,88.2 418.1,65.9C418.1,43.6 429.8,30.3 450.2,30.3C470.6,30.3 473.1,34.6 478.7,46.3C480.6,50 481.5,54 482,58.2C482.5,62.4 482.5,66.6 482.5,71L438.7,71ZM461.9,57.7C461.9,50.4 459.9,43.6 450.1,43.6C440.3,43.6 438.9,50.4 438.6,57.7L461.9,57.7Z" style="fill-rule:nonzero;"/>
        <path d="M510.9,59.6L530.5,31.5L552.7,31.5L529.7,60.8L554.2,99.2L530.9,99.2L510.9,62.5L510.7,62.8L510.7,99.2L490.8,99.2L490.8,2.9L510.7,2.9L510.7,59.3L510.9,59.6Z" style="fill-rule:nonzero;"/>
    </g>
    <path d="M53.8,79.5C33.5,79.5 17.1,63 17.1,42.5C17.1,22 17.2,38.8 17.5,37.1C7.9,42.3 1.4,52.5 1.4,64.3C1.4,81.4 15.1,95.2 32.1,95.2C49.1,95.2 53.7,88.7 58.9,79.2C57.2,79.4 55.5,79.6 53.8,79.6L53.8,79.5Z" style="fill-rule:nonzero;"/>
    <path d="M53.8,11.7C70.7,11.7 84.4,25.5 84.4,42.6C84.4,59.7 70.7,73.5 53.8,73.5C36.9,73.5 23.1,59.7 23.1,42.6C23.1,25.5 36.8,11.7 53.8,11.7Z" style="fill:rgb(141,198,63);fill-rule:nonzero;"/>
</svg>
